<svg xmlns="http://www.w3.org/2000/svg" viewBox="0 0 512 512">
<defs><linearGradient id="bg" x1="0" y1="0" x2="1" y2="1"><stop stop-color="#ffd8e5"/><stop offset="1" stop-color="#f36f9b"/></linearGradient><filter id="s"><feDropShadow dx="0" dy="12" stdDeviation="12" flood-color="#b93d69" flood-opacity=".22"/></filter></defs>
<rect x="18" y="18" width="476" height="476" rx="116" fill="url(#bg)"/>
<g filter="url(#s)" fill="#fff">
<rect x="126" y="220" width="260" height="72" rx="36"/>
<rect x="91" y="184" width="54" height="144" rx="25"/>
<rect x="58" y="204" width="38" height="104" rx="19"/>
<rect x="367" y="184" width="54" height="144" rx="25"/>
<rect x="416" y="204" width="38" height="104" rx="19"/>
</g>
<path d="M256 337c-35-44-91-18-91 26 0 49 91 101 91 101s91-52 91-101c0-44-56-70-91-26z" fill="#fff" opacity=".96"/>
<text x="256" y="274" text-anchor="middle" font-family="Arial,sans-serif" font-size="72" font-weight="900" fill="#e64f82">JY</text>
</svg>