<svg xmlns="http://www.w3.org/2000/svg" viewBox="0 0 512 512">
<defs><linearGradient id="bg" x1="0" y1="0" x2="1" y2="1"><stop stop-color="#fff8f3"/><stop offset="1" stop-color="#ffd5df"/></linearGradient><linearGradient id="p" x1="0" y1="0" x2="0" y2="1"><stop stop-color="#ff9fbd"/><stop offset="1" stop-color="#ef6f9b"/></linearGradient></defs>
<rect width="512" height="512" rx="112" fill="url(#bg)"/><rect x="18" y="18" width="476" height="476" rx="98" fill="none" stroke="#fff" stroke-width="10" opacity=".8"/>
<path d="M256 112c-25-42-83-16-70 28 9 31 70 66 70 66s61-35 70-66c13-44-45-70-70-28z" fill="#f477a1"/>
<g fill="url(#p)" stroke="#e65e8d" stroke-width="5"><rect x="108" y="215" width="70" height="142" rx="30"/><rect x="78" y="238" width="45" height="96" rx="20"/><rect x="334" y="215" width="70" height="142" rx="30"/><rect x="389" y="238" width="45" height="96" rx="20"/></g>
<rect x="165" y="252" width="182" height="68" rx="24" fill="#ffc2d4" stroke="#e65e8d" stroke-width="5"/>
<text x="256" y="299" text-anchor="middle" font-family="Arial,sans-serif" font-size="38" font-weight="700" fill="#b9436b">JY ♥</text>
<text x="256" y="414" text-anchor="middle" font-family="Arial,'Noto Sans KR',sans-serif" font-size="42" font-weight="800" fill="#533b3b">지영이 운동</text>
</svg>